# xmcd
#
# Track frame offsets:
# 150
# 10692
# 25725
# 45147
# 58452
# 68495
# 77765
# 86905
# 100262
# 111620
# 123832
# 140490
# 149825
# 161472
# 170607
# 183797
# 194480
#
# Disc length: 2787 seconds
#
#
# Revision: 0
# Processed by: cddbd v1.5PL3 Copyright (c) Steve Scherf et al.
# Submitted via: FreeRIP 2.51 
#
DISCID=ea0ae111
DTITLE=Kenny Sultan - West coast Blues
DYEAR=1900
DGENRE=Blues
TTITLE0=1 Westcoast Blues
TTITLE1=2 Honky Tonk
TTITLE2=3 Slippin and Drippin
TTITLE3=4 Dust my Broom #33
TTITLE4=5 Funky 5
TTITLE5=6 Pony Up
TTITLE6=7 Crow Jane
TTITLE7=8 Ciggarette Blues
TTITLE8=9 State Street Crawl
TTITLE9=10 The Nickster
TTITLE10=11 Mississippi/Arlington Blues
TTITLE11=12 The Sick Boogie
TTITLE12=13 Brown Whiskey Blooze
TTITLE13=14 Ragging the Blues
TTITLE14=15 Shangri-La
TTITLE15=16 Buck Dancers Choice
TTITLE16=Read em and weep
EXTD=
EXTT0=
EXTT1=
EXTT2=
EXTT3=
EXTT4=
EXTT5=
EXTT6=
EXTT7=
EXTT8=
EXTT9=
EXTT10=
EXTT11=
EXTT12=
EXTT13=
EXTT14=
EXTT15=
EXTT16=
PLAYORDER=
